PathFileType	4	(X/Y/Z)	./resultDataOpenSim/trcMotMarkerGrf/sub06/qtm-14-06.trc
DataRate	CameraRate	NumFrames	NumMarkers	Units	OrigDataRate	OrigDataStartFrame	OrigNumFrames
250.000000	250.000000	9	24	m	250.000000	265	529
Frame#	Time	L.Toe.Tip			R.Toe.Tip			L.Ankle.Lat			R.Ankle.Lat			L.Ankle.Med			R.Ankle.Med			L.Heel			R.Heel			L.Knee.Lat			R.Knee.Lat			L.Knee.Med			R.Knee.Med			L.Thigh.Upper			R.Thigh.Upper			L.ASIS			R.ASIS			V.Sacral			L.Acromium			R.Acromium			C7			L.Elbow			R.Elbow			L.Wrist.Lat			R.Wrist.Lat
		X1	Y1	Z1	X2	Y2	Z2	X3	Y3	Z3	X4	Y4	Z4	X5	Y5	Z5	X6	Y6	Z6	X7	Y7	Z7	X8	Y8	Z8	X9	Y9	Z9	X10	Y10	Z10	X11	Y11	Z11	X12	Y12	Z12	X13	Y13	Z13	X14	Y14	Z14	X15	Y15	Z15	X16	Y16	Z16	X17	Y17	Z17	X18	Y18	Z18	X19	Y19	Z19	X20	Y20	Z20	X21	Y21	Z21	X22	Y22	Z22	X23	Y23	Z23	X24	Y24	Z24

265	1.056	0.058163939	-0.039561647	-0.055156633	0.80134537	0.11961115	0.07547564	-0.042956941	0.034455791	-0.091974818	0.66538496	0.10226076	0.097761725	-0.037044399	0.052981017	-0.0069752778	0.67716482	0.13340548	0.011612147	-0.11958171	0.035601069	-0.047055308	0.62210348	0.065235208	0.035310288	0.1176611	0.37289058	-0.11352003	0.55939852	0.47685522	0.11497282	0.11470036	0.37571255	0.0090766987	0.53797739	0.45371741	-0.0064350486	0.21987914	0.73814137	-0.18076208	0.31040901	0.74762215	0.15975282	0.31417222	0.7789802	-0.15876651	0.38248965	0.79492774	0.082111924	0.1789471	0.86401007	0.015463443	0.34226368	1.2747519	-0.19324089	0.33120847	1.257215	0.1661958	0.26083034	1.3057939	-0.017587777	0.38740951	0.95939426	-0.29162447	0.14521044	1.0148705	0.23510629	0.63450642	0.92504936	-0.24993758	0.14729599	0.79532442	0.32984853
266	1.06	0.05825819	-0.039549533	-0.055110326	0.80986187	0.11778812	0.073323096	-0.041600147	0.035584859	-0.092087733	0.67390985	0.10038975	0.095838049	-0.035491233	0.054015342	-0.0070225917	0.68541514	0.13157872	0.0097188332	-0.11824814	0.037763402	-0.047035182	0.63054985	0.063265653	0.033508836	0.1230898	0.37224191	-0.11351707	0.56734474	0.47454816	0.11358592	0.12051923	0.37498304	0.0091928695	0.54517019	0.45065926	-0.008050314	0.22565112	0.7370207	-0.18000905	0.31907821	0.74598935	0.15960523	0.32043433	0.77808239	-0.15886191	0.39076875	0.79408907	0.081856572	0.18479272	0.8631974	0.016033875	0.34929924	1.2736853	-0.19295161	0.33850525	1.2558737	0.1666001	0.26799008	1.3047122	-0.017110236	0.39630499	0.9586051	-0.29127973	0.15193411	1.0140642	0.23527106	0.64348634	0.92675595	-0.24830991	0.15264839	0.79493129	0.330822
267	1.064	0.058384994	-0.039522095	-0.055055157	0.8175944	0.11554963	0.071256893	-0.040175342	0.036770589	-0.092236644	0.68158905	0.098361842	0.093959557	-0.033854968	0.055086394	-0.0071186432	0.69295826	0.12943813	0.0078409436	-0.11679935	0.040031287	-0.046978841	0.63818939	0.06111356	0.031710062	0.12863572	0.3716092	-0.1135639	0.57532002	0.47235313	0.11214749	0.12648787	0.37419669	0.0092420622	0.55243884	0.4477569	-0.0096535473	0.23155275	0.73592477	-0.17924527	0.32808551	0.74450511	0.15955256	0.32679391	0.77726509	-0.15895639	0.39909419	0.79323303	0.081549886	0.19053392	0.86254529	0.016760361	0.35631194	1.2726334	-0.19264239	0.3458427	1.254524	0.16703167	0.27516735	1.303631	-0.016596359	0.40520173	0.95782397	-0.29078523	0.15873896	1.0132217	0.23546783	0.65237094	0.92836607	-0.24669617	0.1581057	0.79449578	0.33177225
268	1.068	0.058525217	-0.039483375	-0.055001031	0.82458334	0.11292513	0.069232902	-0.038686108	0.03801905	-0.092408739	0.68834263	0.096203355	0.092172128	-0.032123906	0.056207664	-0.0072627099	0.69980227	0.12695145	0.0060081378	-0.11522799	0.042401535	-0.046933683	0.64510371	0.058757479	0.029895887	0.13426759	0.37099019	-0.11366802	0.58330843	0.47023345	0.1106783	0.13259829	0.373364	0.0092293792	0.55976377	0.44501159	-0.011250818	0.23758461	0.73486028	-0.17848435	0.33763346	0.74325832	0.15972131	0.33325396	0.77651974	-0.15907359	0.40746492	0.79234956	0.081178592	0.1966496	0.86193695	0.017695549	0.36330256	1.2716047	-0.19230591	0.35322778	1.2531716	0.16749232	0.28236766	1.3025491	-0.016042178	0.41410299	0.9570613	-0.29016553	0.16562729	1.0123482	0.2356976	0.66115059	0.92988841	-0.24510003	0.16369413	0.79402484	0.33270524
269	1.072	0.058645133	-0.039447507	-0.054962874	0.83087919	0.10992836	0.067228155	-0.037134438	0.039329685	-0.092596573	0.6940828	0.093946148	0.090516459	-0.030279527	0.057388496	-0.007450417	0.70596946	0.12412587	0.0042324784	-0.11352481	0.044880241	-0.046910143	0.65139855	0.056180333	0.028030941	0.1399621	0.37038096	-0.11384896	0.59128406	0.46813155	0.10920457	0.13883755	0.37250263	0.0091548577	0.56707293	0.44240812	-0.012854336	0.2437427	0.7338306	-0.17772026	0.34767185	0.74221986	0.1600917	0.33982156	0.77582584	-0.1592183	0.41589415	0.79143865	0.080736022	0.20345035	0.86123774	0.018687057	0.37026893	1.2706069	-0.19193556	0.36066885	1.2518225	0.16798596	0.28959741	1.3014655	-0.015438531	0.42295103	0.95632455	-0.2895182	0.17260685	1.0114482	0.23595867	0.66982036	0.93131454	-0.24351395	0.16944362	0.79351748	0.33362544
270	1.076	0.058730592	-0.039426459	-0.054932418	0.83654655	0.10656019	0.06523449	-0.035510309	0.040690815	-0.092803452	0.69894825	0.09152178	0.088959894	-0.028309134	0.058620897	-0.0076848569	0.71151293	0.12102658	0.002497962	-0.1116804	0.047461813	-0.046907997	0.65714146	0.053377613	0.026118714	0.14571529	0.36977464	-0.11412136	0.59919504	0.46598472	0.10774803	0.145204	0.37162915	0.009014522	0.57426654	0.43992571	-0.01447046	0.25001852	0.73284157	-0.17694274	0.35785693	0.74122921	0.16046826	0.34648438	0.77516199	-0.15937103	0.42439446	0.79050199	0.080216601	0.21108412	0.86036085	0.019543268	0.37721195	1.269648	-0.19152771	0.36816978	1.2504814	0.16851486	0.29686175	1.3003809	-0.014779401	0.43167939	0.95561821	-0.28894945	0.17968358	1.0105261	0.23624628	0.6783818	0.93263659	-0.24193005	0.17537619	0.79296695	0.33453345
271	1.08	0.058800067	-0.039425183	-0.054875325	0.84165104	0.10282353	0.063250279	-0.033793696	0.042089318	-0.093042559	0.70346026	0.088677381	0.087357395	-0.026201227	0.059886142	-0.007978702	0.71650971	0.11772134	0.00077819101	-0.10968438	0.050119946	-0.046940425	0.66230383	0.050349476	0.024248989	0.15155171	0.36915163	-0.11446673	0.60695927	0.46374258	0.10631466	0.15171495	0.37075618	0.0088056676	0.58127219	0.43755815	-0.01609809	0.25640576	0.73189802	-0.1761644	0.36782685	0.74014271	0.16063358	0.35320299	0.77451895	-0.15950937	0.43298004	0.7895421	0.079618421	0.2194253	0.85930462	0.020215849	0.38413694	1.2687342	-0.19107948	0.37572984	1.2491514	0.16907845	0.30416503	1.299299	-0.01406639	0.44026801	0.95494955	-0.28847012	0.18685648	1.0095834	0.23655633	0.68683567	0.9338594	-0.24034718	0.18149736	0.7923685	0.33542717
272	1.084	0.058879811	-0.039447781	-0.054782415	0.84623952	0.098738839	0.061270002	-0.031950317	0.043514567	-0.093333234	0.70811705	0.085187313	0.085582195	-0.023936576	0.061175728	-0.0083421956	0.72103245	0.11421328	-0.00093518064	-0.10752945	0.05283018	-0.047018927	0.66681624	0.04707811	0.022538288	0.15751388	0.36848687	-0.1148489	0.61450637	0.46137315	0.10488425	0.15839643	0.36988793	0.0085267481	0.58807503	0.43531299	-0.017728457	0.26290678	0.73099418	-0.17541783	0.37744274	0.7389625	0.16048124	0.35995535	0.77389502	-0.1596338	0.4416635	0.78856184	0.078941372	0.22809714	0.85814271	0.020833326	0.39105402	1.267871	-0.19058426	0.38334236	1.2478345	0.16967264	0.31150695	1.2982283	-0.013298128	0.44873495	0.95432353	-0.2880186	0.19411615	1.0086206	0.23688756	0.69517656	0.93499116	-0.23876842	0.18780529	0.79172759	0.33630392
273	1.088	0.058991066	-0.039492048	-0.054703927	0.8503282	0.094350391	0.059274343	-0.029937123	0.044953612	-0.093689845	0.71281696	0.081150065	0.083696549	-0.021500768	0.06250146	-0.0087695559	0.72511208	0.11046191	-0.0026249972	-0.10521284	0.055595471	-0.04713326	0.67066248	0.043528018	0.021031251	0.16363592	0.36777736	-0.11526056	0.62184361	0.45885931	0.10341657	0.16525976	0.36901229	0.0081679601	0.59470097	0.43318679	-0.019343341	0.26952498	0.73012448	-0.17474243	0.38681875	0.73780089	0.1600517	0.36677932	0.7732862	-0.15976911	0.45045096	0.78756519	0.078185972	0.23677549	0.85695314	0.02153918	0.39797425	1.2670637	-0.19003129	0.39099621	1.2465363	0.17029187	0.3188681	1.2971881	-0.012454671	0.45709779	0.95373216	-0.28756256	0.20144347	1.0076395	0.23724123	0.70339542	0.9360348	-0.23719895	0.19430776	0.79106207	0.33716398
